<svg xmlns="http://www.w3.org/2000/svg" width="64" height="52" fill="none" viewBox="0 0 64 52">
    <path fill="#1A212F" d="M8.055 47.89c-.081-.946-.662-1.876-2.26-1.955.984-.127 2.34-2.335 1.76-3.976-.485-1.325-1.938-.804-2.794-.552-.161 1.262.21 3.581-1.227 3.88-.065-.662.065-1.766-.113-2.917-.339-1.91-2.728-1.026-3.277-.79.21 2.115.177 2.683.177 5.222.016.868-.08 2.24 0 2.982.226 1.972 2.632 1.451 3.294.773 0-.836-.016-2.54-.065-3.486 1.066-.08 1.26.22 1.292 2.429.016 2.208 2.696 1.798 3.487 1.041-.274-.82-.194-1.861-.274-2.65zM9.455 46.266c0 4.575 2.422 4.953 4.117 4.906 1.566 0 4.133-.426 4.15-4.906-.017-3.833-1.76-5.19-4.101-5.19-2.47 0-4.166 1.483-4.166 5.19zm4.166-2.619c.177 0 .855-.252.855 2.509 0 1.798-.29 2.823-.872 2.823-.484 0-.871-.426-.823-2.823 0-2.178.565-2.509.84-2.509zM21.043 43.978c0 .9-.016 1.894.033 4.954.016 1.23.064 2.24 1.517 2.209 1.292 0 1.615-.505 1.76-.663.048-1.373-.048-4.37-.08-6.452.355 0 .694 0 1-.016 1.034-.032 1.389-.63 1.373-1.467-.017-.947-.808-1.451-1.905-1.451h-3.068c-2.438.015-2.6.015-2.793 0-.452 1.861-.178 2.855 1.679 2.886h.484zM33.296 41.155c-1.13-.11-3.859-.063-5.748.015.21 2.099.226 4.796.194 6.705.032 1.83-.13 3.108 1.84 3.234 1.292.095 2.019.095 3.181 0 1.582-.126 2.228-.962 1.47-2.792-1.309.19-2.52.236-3.278.094 0-.22-.032-.915 0-1.088.726 0 1.517-.032 2.212-.032 1.436 0 1.291-2.255-.017-2.255-.936-.048-1.356.047-2.227-.032v-1.246c.984-.08 1.42-.032 2.244 0 1.55.047 1.55-2.288.129-2.603zM38.339 37.716c-1.066.678-1.001 1.703-.242 2.319.855.6 2.535.41 3.665-.08 1.033-.457 1.437-1.498.339-2.27-1.63.835-2.713.41-3.762.03zm5.748 4.78c0-.947-.614-1.404-1.583-1.404-1.13 0-1.711.284-2.05 1.293-.404 1.23-1.001 3.124-1.34 4.433 0-.568.097-3.912.097-4.322 0-1.041-.565-1.404-1.518-1.404-.662 0-1.84.41-1.84.41.097.71.177 1.12.193 2.05.033.979 0 2.54.097 5.632.049 1.515.55 2.02 1.809 1.972 2.26-.079 2.405-4.149 3.019-5.631 0 .678-.033 3.028-.033 3.817 0 1.073.097 1.814 1.373 1.814 1.097 0 1.727-.362 1.92-.694-.128-.473-.177-3.344-.177-5.6 0-.994.016-1.861.033-2.366zM53.44 47.89c-.08-.946-.662-1.876-2.26-1.955.984-.127 2.34-2.335 1.76-3.976-.485-1.325-1.938-.804-2.794-.552-.161 1.262.21 3.581-1.227 3.88-.064-.662.065-1.766-.113-2.917-.339-1.91-2.728-1.026-3.277-.79.21 2.115.177 2.683.177 5.222.017.868-.08 2.24 0 2.982.226 1.972 2.632 1.451 3.294.773 0-.836-.016-2.54-.065-3.486 1.066-.08 1.26.22 1.292 2.429.016 2.208 2.696 1.798 3.487 1.041-.274-.82-.193-1.861-.274-2.65zM63.236 50.478c-.226-.615-.21-.915-.258-1.798-.13-2.304-.162-4.528-.937-6.058-1.308-2.256-4.682-1.64-6.313-.505-.145 2.73-.63 3.85-.936 6.894-.226 2.224 1.68 2.84 3.455 1.75 0-.267 0-1.198.08-1.419.21 0 1.002.016 1.309.016 0 0-.081.915.37 1.404.808.9 2.665.63 3.23-.284zM58.44 47.37c.113-.852.113-2.618.161-2.997.081-.063.63-.032.695.047.193.742.193 2.098.242 2.95H58.44z"/>
    <path fill="#FF7236" d="M39.2 7.495l6.586-6.403c.896-.871 2.428-.254 2.428.978v17.11c0-5.55-4.52-8.925-9.014-11.685z"/>
    <path fill="#FFAA50" d="M48.214 19.18c0 8.606-7.174 15.581-16.023 15.581-8.85 0-16.024-6.975-16.024-15.58S23.341 4.574 32.19 4.574c8.85 0 16.024 6.002 16.024 14.607z"/>
    <path fill="#FF7236" d="M25.18 19.18c0-7.498 4.428-13.017 10.325-14.312-1.07-.191-2.178-.294-3.315-.294-2.948 0-5.702.679-8.075 1.886l-5.52-5.368c-.896-.871-2.428-.254-2.428.978v17.11c0-.35 0-.349 0 0 0 8.606 7.174 15.581 16.023 15.581 1.137 0 2.245-.119 3.315-.338-5.897-1.485-10.325-7.743-10.325-15.242z"/>
    <path fill="#FFFDFB" d="M28.685 28.918c1.936 0 3.505-1.308 3.505-2.92 0-1.614-1.569-2.922-3.505-2.922s-3.505 1.308-3.505 2.921c0 1.613 1.57 2.921 3.505 2.921zM35.696 28.918c1.936 0 3.505-1.308 3.505-2.92 0-1.614-1.57-2.922-3.505-2.922-1.936 0-3.505 1.308-3.505 2.921 0 1.613 1.569 2.921 3.505 2.921z"/>
    <path fill="#FF913C" d="M32.19 25.998c1.107 0 2.004-.872 2.004-1.948 0-1.075-.897-1.947-2.003-1.947-1.107 0-2.003.872-2.003 1.947 0 1.076.896 1.948 2.003 1.948z"/>
    <path fill="#1A212F" d="M26.182 20.154c-.554 0-1.002-.436-1.002-.973v-.974c0-.538.448-.974 1.002-.974.553 0 1.001.436 1.001.974v.974c0 .537-.448.973-1.001.973zM38.199 20.154c-.553 0-1.001-.436-1.001-.973v-.974c0-.538.448-.974 1.001-.974.554 0 1.002.436 1.002.974v.974c0 .537-.448.973-1.002.973z"/>
</svg>
