<svg xmlns="http://www.w3.org/2000/svg" width="16" height="16" fill="none" viewBox="0 0 16 16">
    <path fill="#777" d="M14.528 13.054H10.49c2.09-1.21 3.5-3.473 3.5-6.058C13.992 3.138 10.854 0 6.997 0 3.138 0 0 3.138 0 6.996c0 3.857 3.138 6.996 6.996 6.996h7.532c.294 0 .534.24.534.536 0 .295-.239.534-.534.534H8c-.259 0-.469.21-.469.47 0 .258.21.468.469.468h6.528c.805 0 1.472-.65 1.472-1.473 0-.812-.66-1.473-1.472-1.473zm-7.532 0c-.262 0-.52-.017-.774-.05l5.122-2.956.646.373c-1.093 1.589-2.924 2.633-4.994 2.633zM3.598 12.01L9.17 8.792l1.236.714-5.5 3.176c-.466-.171-.904-.398-1.308-.673zm-.482-9.663c.377-.314.792-.584 1.237-.8V7.98l-1.237.714V2.346zm2.175-1.164c.396-.116.81-.194 1.236-.227v5.77l-1.236.714V1.182zm7.763 5.814c0 .147-.005.292-.016.437L7.465 4.215V2.787l5.5 3.176c.059.336.09.68.09 1.033zm-5.59-1.699l5.42 3.129c-.1.412-.243.809-.423 1.184L7.465 6.725V5.297zm5.122-.636L7.465 1.704V.955c2.31.178 4.263 1.658 5.121 3.706zM2.18 3.326v5.91l-.648.374C1.151 8.818.938 7.93.938 6.996c0-1.379.463-2.65 1.241-3.67zm-.178 7.095l4.995-2.884 1.236.714-5.415 3.127c-.304-.29-.577-.61-.816-.957z"/>
</svg>
